<svg width="32" height="32" viewBox="0 0 32 32" fill="none" xmlns="http://www.w3.org/2000/svg">
<path d="M30.45 9.42004V22.855C30.4525 22.8933 30.4525 22.9317 30.45 22.97L22.225 15.64L30.45 9.42004ZM11.405 15L14.195 17.11C14.7152 17.5019 15.3488 17.7138 16 17.7138C16.6513 17.7138 17.2848 17.5019 17.805 17.11L20.595 15L30.12 7.80004C29.869 7.30885 29.4875 6.89637 29.0173 6.60792C28.5472 6.31947 28.0066 6.16623 27.455 6.16504H4.54501C3.99342 6.16623 3.45283 6.31947 2.98267 6.60792C2.51251 6.89637 2.13098 7.30885 1.88001 7.80004L11.405 15ZM1.55001 9.42004V22.855C1.54754 22.8933 1.54754 22.9317 1.55001 22.97L9.77501 15.64L1.55001 9.42004ZM18.71 18.295C17.9293 18.884 16.978 19.2026 16 19.2026C15.0221 19.2026 14.0707 18.884 13.29 18.295L11 16.56L2.06501 24.525C2.34114 24.9336 2.71372 25.2677 3.14977 25.498C3.58582 25.7282 4.07191 25.8474 4.56501 25.845H27.455C27.9481 25.8474 28.4342 25.7282 28.8702 25.498C29.3063 25.2677 29.6789 24.9336 29.955 24.525L21 16.56L18.71 18.295Z" fill="white"/>
</svg>
