<svg width="151" height="33" viewBox="0 0 151 33" fill="none" xmlns="http://www.w3.org/2000/svg">
<path fill-rule="evenodd" clip-rule="evenodd" d="M71.1902 30.8691C71.7255 30.8691 72.1232 30.3755 72.1232 29.8402C72.1232 26.9988 74.4266 24.6953 77.268 24.6953C77.8033 24.6953 78.297 24.2977 78.297 23.7624L78.297 9.16472C78.297 8.62942 77.8033 8.23179 77.268 8.23179C74.4266 8.23179 72.1232 5.92836 72.1232 3.08693C72.1232 2.65974 72.1752 2.24471 72.2734 1.84783C72.477 1.02437 71.9402 1.48621e-05 71.0919 1.48091e-05L42.283 1.30111e-05C41.7147 1.29757e-05 41.254 0.460698 41.254 1.02898L41.254 29.8402C41.254 30.4085 41.7147 30.8691 42.283 30.8691L71.1902 30.8691Z" fill="#00F5F5"/>
<path fill-rule="evenodd" clip-rule="evenodd" d="M6.17381 29.8402C6.17381 26.9987 3.87038 24.6953 1.02895 24.6953C0.493665 24.6953 7.49339e-07 24.2977 8.10378e-07 23.7624L2.70962e-06 7.10674C2.77066e-06 6.57146 0.493666 6.17384 1.02895 6.17384C3.87038 6.17384 6.17381 3.87041 6.17381 1.02899C6.17381 0.493687 6.57143 1.21934e-05 7.10673 1.22545e-05L36.014 1.55508e-05C36.5823 1.56156e-05 37.043 0.460701 37.043 1.02899L37.043 29.8402C37.043 30.4085 36.5823 30.8691 36.014 30.8691L7.10673 30.8691C6.57143 30.8691 6.17381 30.3755 6.17381 29.8402Z" fill="#10B5B5"/>
<path fill-rule="evenodd" clip-rule="evenodd" d="M39.2318 1.52411e-05C39.4552 1.52509e-05 39.6362 0.181094 39.6362 0.404466L39.6362 1.47337C39.6362 1.69674 39.4552 1.87782 39.2318 1.87782C39.0084 1.87782 38.8273 1.69674 38.8273 1.47337L38.8273 0.404466C38.8273 0.181094 39.0084 1.52313e-05 39.2318 1.52411e-05ZM39.2318 3.20673C39.4552 3.20673 39.6362 3.38781 39.6362 3.61118L39.6362 5.749C39.6362 5.97237 39.4552 6.15345 39.2318 6.15345C39.0084 6.15345 38.8273 5.97237 38.8273 5.749L38.8273 3.61118C38.8273 3.38781 39.0084 3.20673 39.2318 3.20673ZM39.2318 7.48236C39.4552 7.48236 39.6362 7.66344 39.6362 7.88681L39.6362 10.0246C39.6362 10.248 39.4552 10.4291 39.2318 10.4291C39.0084 10.4291 38.8273 10.248 38.8273 10.0246L38.8273 7.88681C38.8273 7.66344 39.0084 7.48236 39.2318 7.48236ZM39.2318 11.758C39.4552 11.758 39.6362 11.9391 39.6362 12.1624L39.6362 14.3002C39.6362 14.5236 39.4552 14.7047 39.2318 14.7047C39.0084 14.7047 38.8273 14.5236 38.8273 14.3002L38.8273 12.1624C38.8273 11.9391 39.0084 11.758 39.2318 11.758ZM39.2318 16.0336C39.4552 16.0336 39.6362 16.2147 39.6362 16.4381L39.6362 18.5759C39.6362 18.7992 39.4552 18.9803 39.2318 18.9803C39.0084 18.9803 38.8273 18.7992 38.8273 18.5759L38.8273 16.4381C38.8273 16.2147 39.0084 16.0336 39.2318 16.0336ZM39.2318 20.3092C39.4552 20.3092 39.6362 20.4903 39.6362 20.7137L39.6362 22.8515C39.6362 23.0749 39.4552 23.2559 39.2318 23.2559C39.0084 23.2559 38.8273 23.0749 38.8273 22.8515L38.8273 20.7137C38.8273 20.4903 39.0084 20.3092 39.2318 20.3092ZM39.2318 24.5849C39.4552 24.5849 39.6362 24.7659 39.6362 24.9893L39.6362 27.1271C39.6362 27.3505 39.4552 27.5316 39.2318 27.5316C39.0084 27.5316 38.8273 27.3505 38.8273 27.1271L38.8273 24.9893C38.8273 24.7659 39.0084 24.5849 39.2318 24.5849ZM39.2318 28.8605C39.4552 28.8605 39.6362 29.0416 39.6362 29.2649L39.6362 30.3338C39.6362 30.5572 39.4552 30.7383 39.2318 30.7383C39.0084 30.7383 38.8273 30.5572 38.8273 30.3338L38.8273 29.2649C38.8273 29.0416 39.0084 28.8605 39.2318 28.8605Z" fill="#C4C4C4"/>
<path d="M96.5069 13.7388H87.9915V3.53195H96.5069V5.45667H90.0475V7.73134H95.7779V9.53941H90.0475V11.8141H96.5069V13.7388ZM97.4722 3.53195H99.6448L103.144 11.5808L106.629 3.53195H108.816L104.296 13.7388H101.992L97.4722 3.53195ZM118.578 13.7388H110.063V3.53195H118.578V5.45667H112.119V7.73134H117.849V9.53941H112.119V11.8141H118.578V13.7388ZM120.315 3.53195H122.371L128.349 10.7351V3.53195H130.391V13.7388H128.349L122.371 6.53568V13.7388H120.315V3.53195ZM131.778 5.45667V3.53195H141.766V5.45667H137.8V13.7388H135.744V5.45667H131.778ZM89.4351 31.7388H87.2625L91.8555 21.532H94.1594L98.7525 31.7388H96.5799L95.7487 29.8724H90.2662L89.4351 31.7388ZM93.0075 23.69L91.1265 27.9477H94.8884L93.0075 23.69ZM100.01 31.7388V21.532H102.066V29.8141H108.117V31.7388H100.01ZM110.171 30.6306C109.315 29.8044 108.888 28.4726 108.888 26.6354C108.888 24.7981 109.301 23.4664 110.127 22.6401C110.953 21.8139 112.285 21.4007 114.122 21.4007C115.658 21.4007 116.839 21.6875 117.665 22.261C118.492 22.8345 119.012 23.7434 119.226 24.9877H117.082C116.684 23.8698 115.697 23.3109 114.122 23.3109C113.004 23.3109 112.193 23.5782 111.687 24.1128C111.182 24.6378 110.929 25.4786 110.929 26.6354C110.929 27.8019 111.196 28.6476 111.731 29.1725C112.266 29.6877 113.16 29.9453 114.414 29.9453C115.376 29.9453 116.071 29.8044 116.499 29.5225C116.936 29.2406 117.155 28.7885 117.155 28.1664V27.8894H114.02V26.0813H119.211V28.1664C119.211 29.4593 118.827 30.4022 118.059 30.9952C117.291 31.5784 116.066 31.87 114.385 31.87C112.431 31.87 111.026 31.4569 110.171 30.6306ZM125.87 21.4007C127.697 21.4007 129.024 21.8139 129.85 22.6401C130.686 23.4664 131.104 24.7981 131.104 26.6354C131.104 28.4629 130.686 29.7946 129.85 30.6306C129.024 31.4569 127.697 31.87 125.87 31.87C124.033 31.87 122.701 31.4569 121.874 30.6306C121.048 29.7946 120.635 28.4629 120.635 26.6354C120.635 24.7981 121.048 23.4664 121.874 22.6401C122.701 21.8139 124.033 21.4007 125.87 21.4007ZM123.435 24.1128C122.929 24.6378 122.676 25.4786 122.676 26.6354C122.676 27.7922 122.929 28.633 123.435 29.1579C123.94 29.6828 124.752 29.9453 125.87 29.9453C126.988 29.9453 127.799 29.6828 128.305 29.1579C128.81 28.633 129.063 27.7922 129.063 26.6354C129.063 25.4786 128.81 24.6378 128.305 24.1128C127.799 23.5782 126.988 23.3109 125.87 23.3109C124.752 23.3109 123.94 23.5782 123.435 24.1128Z" fill="#F2F2F2"/>
</svg>
