<svg xmlns="http://www.w3.org/2000/svg" width="21" height="15" viewBox="0 0 21 15">
    <g fill="#FFFFFF" fill-rule="evenodd" transform="translate(-2 -5)">
        <circle cx="12" cy="12" r="12" fill-opacity="0"/>
        <path fill-rule="nonzero" d="M3.488 7.4h13.113c.475 0 .86-.425.86-.95 0-.524-.385-.95-.86-.95H3.488c-.475 0-.86.426-.86.95 0 .526.385.95.86.95zm18.33 4.263H3.81c-.652 0-1.18.426-1.18.95 0 .525.528.95 1.18.95h18.01c.653 0 1.181-.425 1.181-.95 0-.524-.528-.95-1.181-.95zm-2.608 6.163H3.649c-.564 0-1.02.426-1.02.95 0 .525.456.95 1.02.95h15.56c.565 0 1.021-.425 1.021-.95 0-.524-.456-.95-1.02-.95z"/>
    </g>
</svg>
