<svg width="1292" height="50" viewBox="0 0 1292 50" fill="none" xmlns="http://www.w3.org/2000/svg">
<path d="M6.984 23.32H25.452V27.316H6.984V23.32ZM24.66 13.708H29.448V37H24.66V13.708ZM2.772 13.708H7.56V37H2.772V13.708ZM44.9111 37.432C42.6551 37.432 40.6631 37.072 38.9351 36.352C37.2311 35.632 35.8991 34.588 34.9391 33.22C33.9791 31.828 33.4991 30.124 33.4991 28.108C33.4991 26.092 33.9791 24.388 34.9391 22.996C35.8991 21.58 37.2311 20.512 38.9351 19.792C40.6631 19.072 42.6551 18.712 44.9111 18.712C47.1671 18.712 49.1351 19.072 50.8151 19.792C52.5191 20.512 53.8511 21.58 54.8111 22.996C55.7711 24.388 56.2511 26.092 56.2511 28.108C56.2511 30.124 55.7711 31.828 54.8111 33.22C53.8511 34.588 52.5191 35.632 50.8151 36.352C49.1351 37.072 47.1671 37.432 44.9111 37.432ZM44.9111 33.832C46.1591 33.832 47.2751 33.616 48.2591 33.184C49.2671 32.728 50.0591 32.08 50.6351 31.24C51.2111 30.376 51.4991 29.332 51.4991 28.108C51.4991 26.884 51.2111 25.84 50.6351 24.976C50.0591 24.088 49.2791 23.416 48.2951 22.96C47.3111 22.504 46.1831 22.276 44.9111 22.276C43.6631 22.276 42.5351 22.504 41.5271 22.96C40.5191 23.416 39.7151 24.076 39.1151 24.94C38.5391 25.804 38.2511 26.86 38.2511 28.108C38.2511 29.332 38.5391 30.376 39.1151 31.24C39.6911 32.08 40.4831 32.728 41.4911 33.184C42.4991 33.616 43.6391 33.832 44.9111 33.832ZM82.3357 33.76L80.8597 33.724L86.6917 19.108H91.8397L83.9557 37H79.5637L73.8037 22.564H75.3877L69.4477 37H65.0557L57.3877 19.108H62.5357L68.1517 33.76H66.6757L71.9317 19.108H77.2957L82.3357 33.76ZM104.565 13.708H109.353V37H104.565V13.708ZM113.681 19.108H127.577V22.744H113.681V19.108ZM118.289 14.212H122.969V37H118.289V14.212ZM147.622 37L137.794 13.708H143.086L151.402 34.336L149.854 34.372L157.774 13.708H163.282L171.202 34.372L169.654 34.336L177.97 13.708H183.154L173.434 37H167.566L159.79 16.804H161.302L153.49 37H147.622ZM194.22 37.432C191.964 37.432 189.972 37.072 188.244 36.352C186.54 35.632 185.208 34.588 184.248 33.22C183.288 31.828 182.808 30.124 182.808 28.108C182.808 26.092 183.288 24.388 184.248 22.996C185.208 21.58 186.54 20.512 188.244 19.792C189.972 19.072 191.964 18.712 194.22 18.712C196.476 18.712 198.444 19.072 200.124 19.792C201.828 20.512 203.16 21.58 204.12 22.996C205.08 24.388 205.56 26.092 205.56 28.108C205.56 30.124 205.08 31.828 204.12 33.22C203.16 34.588 201.828 35.632 200.124 36.352C198.444 37.072 196.476 37.432 194.22 37.432ZM194.22 33.832C195.468 33.832 196.584 33.616 197.568 33.184C198.576 32.728 199.368 32.08 199.944 31.24C200.52 30.376 200.808 29.332 200.808 28.108C200.808 26.884 200.52 25.84 199.944 24.976C199.368 24.088 198.588 23.416 197.604 22.96C196.62 22.504 195.492 22.276 194.22 22.276C192.972 22.276 191.844 22.504 190.836 22.96C189.828 23.416 189.024 24.076 188.424 24.94C187.848 25.804 187.56 26.86 187.56 28.108C187.56 29.332 187.848 30.376 188.424 31.24C189 32.08 189.792 32.728 190.8 33.184C191.808 33.616 192.948 33.832 194.22 33.832ZM209.019 19.108H213.699V37H209.019V19.108ZM220.575 22.96C219.231 22.96 218.067 23.224 217.083 23.752C216.099 24.256 215.307 24.88 214.707 25.624C214.107 26.368 213.687 27.088 213.447 27.784L213.411 25.804C213.435 25.516 213.531 25.096 213.699 24.544C213.867 23.968 214.119 23.356 214.455 22.708C214.791 22.036 215.235 21.4 215.787 20.8C216.339 20.176 217.011 19.672 217.803 19.288C218.595 18.904 219.519 18.712 220.575 18.712V22.96ZM223.793 11.908H228.473V37H223.793V11.908ZM243.557 19.108L232.901 28.504L233.009 25.624L244.385 37H238.445L228.581 26.956L237.185 19.108H243.557ZM245.67 31.06H249.99C250.254 31.876 250.794 32.548 251.61 33.076C252.45 33.58 253.542 33.832 254.886 33.832C255.798 33.832 256.506 33.748 257.01 33.58C257.514 33.412 257.862 33.172 258.054 32.86C258.246 32.524 258.342 32.152 258.342 31.744C258.342 31.24 258.186 30.856 257.874 30.592C257.562 30.304 257.082 30.076 256.434 29.908C255.786 29.74 254.958 29.584 253.95 29.44C252.942 29.272 251.97 29.068 251.034 28.828C250.098 28.588 249.27 28.276 248.55 27.892C247.83 27.484 247.254 26.98 246.822 26.38C246.414 25.756 246.21 25 246.21 24.112C246.21 23.248 246.414 22.48 246.822 21.808C247.254 21.136 247.842 20.572 248.586 20.116C249.354 19.66 250.242 19.312 251.25 19.072C252.282 18.832 253.386 18.712 254.562 18.712C256.338 18.712 257.814 18.976 258.99 19.504C260.166 20.008 261.042 20.728 261.618 21.664C262.218 22.576 262.518 23.632 262.518 24.832H258.378C258.186 23.944 257.802 23.308 257.226 22.924C256.65 22.516 255.762 22.312 254.562 22.312C253.386 22.312 252.498 22.492 251.898 22.852C251.298 23.212 250.998 23.704 250.998 24.328C250.998 24.832 251.178 25.228 251.538 25.516C251.922 25.78 252.474 25.996 253.194 26.164C253.938 26.332 254.862 26.512 255.966 26.704C256.902 26.896 257.79 27.112 258.63 27.352C259.494 27.592 260.262 27.904 260.934 28.288C261.606 28.648 262.134 29.14 262.518 29.764C262.926 30.364 263.13 31.132 263.13 32.068C263.13 33.22 262.794 34.192 262.122 34.984C261.474 35.776 260.538 36.388 259.314 36.82C258.09 37.228 256.626 37.432 254.922 37.432C253.41 37.432 252.102 37.276 250.998 36.964C249.918 36.628 249.018 36.208 248.298 35.704C247.578 35.176 247.014 34.624 246.606 34.048C246.222 33.448 245.958 32.884 245.814 32.356C245.67 31.828 245.622 31.396 245.67 31.06Z" fill="white"/>
<line x1="294" y1="23.5" x2="1292" y2="23.4999" stroke="white" stroke-width="3"/>
</svg>
