<svg width="1313" height="50" viewBox="0 0 1313 50" fill="none" xmlns="http://www.w3.org/2000/svg">
<path d="M1049.22 29.152H1054.08C1054.18 29.968 1054.55 30.712 1055.2 31.384C1055.87 32.032 1056.75 32.548 1057.83 32.932C1058.91 33.292 1060.12 33.472 1061.46 33.472C1062.69 33.472 1063.7 33.34 1064.49 33.076C1065.28 32.812 1065.87 32.44 1066.25 31.96C1066.64 31.48 1066.83 30.904 1066.83 30.232C1066.83 29.584 1066.59 29.092 1066.11 28.756C1065.63 28.396 1064.87 28.108 1063.84 27.892C1062.81 27.652 1061.45 27.412 1059.77 27.172C1058.45 26.98 1057.2 26.716 1056.03 26.38C1054.85 26.02 1053.81 25.564 1052.9 25.012C1052.01 24.46 1051.3 23.788 1050.77 22.996C1050.27 22.18 1050.02 21.22 1050.02 20.116C1050.02 18.748 1050.4 17.548 1051.17 16.516C1051.96 15.484 1053.12 14.68 1054.66 14.104C1056.2 13.528 1058.08 13.24 1060.31 13.24C1063.67 13.24 1066.25 13.96 1068.05 15.4C1069.88 16.816 1070.76 18.772 1070.72 21.268H1066.04C1065.94 19.852 1065.34 18.832 1064.24 18.208C1063.16 17.584 1061.79 17.272 1060.13 17.272C1058.6 17.272 1057.32 17.5 1056.32 17.956C1055.33 18.412 1054.84 19.192 1054.84 20.296C1054.84 20.728 1054.96 21.112 1055.2 21.448C1055.44 21.76 1055.85 22.036 1056.42 22.276C1057 22.516 1057.78 22.744 1058.76 22.96C1059.75 23.176 1060.97 23.392 1062.44 23.608C1063.8 23.8 1065.04 24.064 1066.14 24.4C1067.27 24.712 1068.23 25.132 1069.02 25.66C1069.84 26.164 1070.46 26.812 1070.9 27.604C1071.33 28.396 1071.54 29.368 1071.54 30.52C1071.54 31.936 1071.17 33.172 1070.43 34.228C1069.71 35.26 1068.58 36.064 1067.04 36.64C1065.53 37.216 1063.56 37.504 1061.14 37.504C1059.41 37.504 1057.89 37.324 1056.57 36.964C1055.25 36.58 1054.11 36.076 1053.15 35.452C1052.19 34.828 1051.41 34.144 1050.81 33.4C1050.21 32.656 1049.78 31.912 1049.51 31.168C1049.27 30.424 1049.18 29.752 1049.22 29.152ZM1073.9 19.108H1087.79V22.744H1073.9V19.108ZM1078.5 14.212H1083.18V37H1078.5V14.212ZM1099.23 37.396C1097.46 37.396 1095.84 37.012 1094.37 36.244C1092.93 35.452 1091.78 34.36 1090.92 32.968C1090.08 31.552 1089.66 29.92 1089.66 28.072C1089.66 26.176 1090.09 24.532 1090.95 23.14C1091.82 21.748 1092.98 20.668 1094.44 19.9C1095.93 19.108 1097.61 18.712 1099.48 18.712C1101.55 18.712 1103.2 19.132 1104.45 19.972C1105.72 20.788 1106.65 21.904 1107.22 23.32C1107.8 24.736 1108.09 26.32 1108.09 28.072C1108.09 29.128 1107.92 30.208 1107.58 31.312C1107.25 32.392 1106.73 33.4 1106.04 34.336C1105.34 35.248 1104.43 35.992 1103.3 36.568C1102.17 37.12 1100.82 37.396 1099.23 37.396ZM1100.74 33.796C1102.16 33.796 1103.38 33.556 1104.42 33.076C1105.45 32.596 1106.24 31.924 1106.79 31.06C1107.34 30.196 1107.62 29.2 1107.62 28.072C1107.62 26.848 1107.33 25.816 1106.76 24.976C1106.2 24.112 1105.41 23.464 1104.38 23.032C1103.37 22.576 1102.16 22.348 1100.74 22.348C1098.75 22.348 1097.2 22.876 1096.1 23.932C1095 24.964 1094.44 26.344 1094.44 28.072C1094.44 29.224 1094.71 30.232 1095.24 31.096C1095.76 31.936 1096.5 32.596 1097.43 33.076C1098.39 33.556 1099.5 33.796 1100.74 33.796ZM1107.62 19.108H1112.3V37H1107.94C1107.94 37 1107.91 36.772 1107.84 36.316C1107.79 35.836 1107.74 35.236 1107.69 34.516C1107.64 33.796 1107.62 33.088 1107.62 32.392V19.108ZM1116.86 11.908H1121.54V37H1116.86V11.908ZM1136.62 19.108L1125.97 28.504L1126.08 25.624L1137.45 37H1131.51L1121.65 26.956L1130.25 19.108H1136.62ZM1145.28 11.26V15.364H1139.84V11.26H1145.28ZM1140.2 19.108H1144.88V37H1140.2V19.108ZM1149.55 19.108H1154.23V37H1149.55V19.108ZM1162.54 18.712C1163.65 18.712 1164.67 18.856 1165.6 19.144C1166.54 19.432 1167.35 19.876 1168.05 20.476C1168.75 21.076 1169.29 21.844 1169.67 22.78C1170.05 23.692 1170.25 24.784 1170.25 26.056V37H1165.57V26.884C1165.57 25.372 1165.19 24.268 1164.45 23.572C1163.73 22.852 1162.54 22.492 1160.89 22.492C1159.64 22.492 1158.51 22.732 1157.5 23.212C1156.49 23.692 1155.68 24.304 1155.05 25.048C1154.43 25.768 1154.07 26.524 1153.97 27.316L1153.94 25.48C1154.06 24.64 1154.33 23.824 1154.77 23.032C1155.2 22.24 1155.77 21.52 1156.49 20.872C1157.24 20.2 1158.11 19.672 1159.12 19.288C1160.13 18.904 1161.27 18.712 1162.54 18.712ZM1183.44 34.264C1181.49 34.264 1179.78 33.976 1178.29 33.4C1176.82 32.8 1175.68 31.924 1174.87 30.772C1174.05 29.62 1173.64 28.228 1173.64 26.596C1173.64 24.988 1174.04 23.596 1174.83 22.42C1175.62 21.244 1176.75 20.332 1178.22 19.684C1179.7 19.036 1181.44 18.712 1183.44 18.712C1183.99 18.712 1184.52 18.748 1185.02 18.82C1185.55 18.892 1186.06 18.988 1186.57 19.108L1195.6 19.144V22.672C1194.38 22.696 1193.13 22.552 1191.86 22.24C1190.61 21.904 1189.51 21.544 1188.55 21.16L1188.44 20.908C1189.26 21.292 1190.02 21.772 1190.74 22.348C1191.46 22.9 1192.04 23.548 1192.47 24.292C1192.93 25.012 1193.16 25.852 1193.16 26.812C1193.16 28.372 1192.76 29.716 1191.97 30.844C1191.18 31.948 1190.05 32.8 1188.58 33.4C1187.14 33.976 1185.43 34.264 1183.44 34.264ZM1189.45 44.38V43.516C1189.45 42.412 1189.09 41.644 1188.37 41.212C1187.67 40.78 1186.71 40.564 1185.49 40.564H1179.91C1178.83 40.564 1177.92 40.48 1177.17 40.312C1176.45 40.144 1175.88 39.904 1175.44 39.592C1175.01 39.28 1174.7 38.908 1174.51 38.476C1174.32 38.068 1174.22 37.624 1174.22 37.144C1174.22 36.184 1174.53 35.464 1175.16 34.984C1175.78 34.48 1176.62 34.144 1177.68 33.976C1178.73 33.808 1179.9 33.772 1181.17 33.868L1183.44 34.264C1181.92 34.312 1180.8 34.444 1180.05 34.66C1179.33 34.852 1178.97 35.248 1178.97 35.848C1178.97 36.208 1179.12 36.496 1179.4 36.712C1179.69 36.904 1180.1 37 1180.63 37H1186.5C1188.1 37 1189.47 37.168 1190.6 37.504C1191.75 37.864 1192.63 38.452 1193.23 39.268C1193.83 40.108 1194.13 41.248 1194.13 42.688V44.38H1189.45ZM1183.44 30.88C1184.47 30.88 1185.37 30.712 1186.14 30.376C1186.93 30.04 1187.54 29.56 1187.97 28.936C1188.4 28.288 1188.62 27.52 1188.62 26.632C1188.62 25.72 1188.4 24.94 1187.97 24.292C1187.54 23.644 1186.94 23.152 1186.17 22.816C1185.4 22.456 1184.49 22.276 1183.44 22.276C1182.4 22.276 1181.49 22.456 1180.7 22.816C1179.91 23.152 1179.3 23.644 1178.86 24.292C1178.43 24.94 1178.22 25.72 1178.22 26.632C1178.22 27.52 1178.43 28.288 1178.86 28.936C1179.3 29.56 1179.9 30.04 1180.66 30.376C1181.46 30.712 1182.38 30.88 1183.44 30.88ZM1211.59 31.924V27.928H1227V31.924H1211.59ZM1205.8 37L1216.74 13.708H1221.92L1232.98 37H1227.76L1218.18 16.012H1220.48L1210.98 37H1205.8ZM1236.11 11.908H1240.79V37H1236.11V11.908ZM1254.45 34.264C1252.51 34.264 1250.79 33.976 1249.3 33.4C1247.84 32.8 1246.7 31.924 1245.88 30.772C1245.07 29.62 1244.66 28.228 1244.66 26.596C1244.66 24.988 1245.06 23.596 1245.85 22.42C1246.64 21.244 1247.77 20.332 1249.23 19.684C1250.72 19.036 1252.46 18.712 1254.45 18.712C1255 18.712 1255.53 18.748 1256.04 18.82C1256.56 18.892 1257.08 18.988 1257.58 19.108L1266.62 19.144V22.672C1265.4 22.696 1264.15 22.552 1262.88 22.24C1261.63 21.904 1260.52 21.544 1259.56 21.16L1259.46 20.908C1260.27 21.292 1261.04 21.772 1261.76 22.348C1262.48 22.9 1263.06 23.548 1263.49 24.292C1263.94 25.012 1264.17 25.852 1264.17 26.812C1264.17 28.372 1263.78 29.716 1262.98 30.844C1262.19 31.948 1261.06 32.8 1259.6 33.4C1258.16 33.976 1256.44 34.264 1254.45 34.264ZM1260.46 44.38V43.516C1260.46 42.412 1260.1 41.644 1259.38 41.212C1258.69 40.78 1257.73 40.564 1256.5 40.564H1250.92C1249.84 40.564 1248.93 40.48 1248.19 40.312C1247.47 40.144 1246.89 39.904 1246.46 39.592C1246.03 39.28 1245.72 38.908 1245.52 38.476C1245.33 38.068 1245.24 37.624 1245.24 37.144C1245.24 36.184 1245.55 35.464 1246.17 34.984C1246.8 34.48 1247.64 34.144 1248.69 33.976C1249.75 33.808 1250.91 33.772 1252.18 33.868L1254.45 34.264C1252.94 34.312 1251.81 34.444 1251.07 34.66C1250.35 34.852 1249.99 35.248 1249.99 35.848C1249.99 36.208 1250.13 36.496 1250.42 36.712C1250.71 36.904 1251.12 37 1251.64 37H1257.51C1259.12 37 1260.49 37.168 1261.62 37.504C1262.77 37.864 1263.64 38.452 1264.24 39.268C1264.84 40.108 1265.14 41.248 1265.14 42.688V44.38H1260.46ZM1254.45 30.88C1255.48 30.88 1256.38 30.712 1257.15 30.376C1257.94 30.04 1258.56 29.56 1258.99 28.936C1259.42 28.288 1259.64 27.52 1259.64 26.632C1259.64 25.72 1259.42 24.94 1258.99 24.292C1258.56 23.644 1257.96 23.152 1257.19 22.816C1256.42 22.456 1255.51 22.276 1254.45 22.276C1253.42 22.276 1252.51 22.456 1251.72 22.816C1250.92 23.152 1250.31 23.644 1249.88 24.292C1249.45 24.94 1249.23 25.72 1249.23 26.632C1249.23 27.52 1249.45 28.288 1249.88 28.936C1250.31 29.56 1250.91 30.04 1251.68 30.376C1252.47 30.712 1253.4 30.88 1254.45 30.88ZM1279.91 37.432C1277.65 37.432 1275.66 37.072 1273.93 36.352C1272.23 35.632 1270.9 34.588 1269.94 33.22C1268.98 31.828 1268.5 30.124 1268.5 28.108C1268.5 26.092 1268.98 24.388 1269.94 22.996C1270.9 21.58 1272.23 20.512 1273.93 19.792C1275.66 19.072 1277.65 18.712 1279.91 18.712C1282.16 18.712 1284.13 19.072 1285.81 19.792C1287.52 20.512 1288.85 21.58 1289.81 22.996C1290.77 24.388 1291.25 26.092 1291.25 28.108C1291.25 30.124 1290.77 31.828 1289.81 33.22C1288.85 34.588 1287.52 35.632 1285.81 36.352C1284.13 37.072 1282.16 37.432 1279.91 37.432ZM1279.91 33.832C1281.16 33.832 1282.27 33.616 1283.26 33.184C1284.26 32.728 1285.06 32.08 1285.63 31.24C1286.21 30.376 1286.5 29.332 1286.5 28.108C1286.5 26.884 1286.21 25.84 1285.63 24.976C1285.06 24.088 1284.28 23.416 1283.29 22.96C1282.31 22.504 1281.18 22.276 1279.91 22.276C1278.66 22.276 1277.53 22.504 1276.52 22.96C1275.52 23.416 1274.71 24.076 1274.11 24.94C1273.54 25.804 1273.25 26.86 1273.25 28.108C1273.25 29.332 1273.54 30.376 1274.11 31.24C1274.69 32.08 1275.48 32.728 1276.49 33.184C1277.5 33.616 1278.64 33.832 1279.91 33.832ZM1293.99 31.06H1298.31C1298.57 31.876 1299.11 32.548 1299.93 33.076C1300.77 33.58 1301.86 33.832 1303.2 33.832C1304.11 33.832 1304.82 33.748 1305.33 33.58C1305.83 33.412 1306.18 33.172 1306.37 32.86C1306.56 32.524 1306.66 32.152 1306.66 31.744C1306.66 31.24 1306.5 30.856 1306.19 30.592C1305.88 30.304 1305.4 30.076 1304.75 29.908C1304.1 29.74 1303.27 29.584 1302.27 29.44C1301.26 29.272 1300.29 29.068 1299.35 28.828C1298.41 28.588 1297.59 28.276 1296.87 27.892C1296.15 27.484 1295.57 26.98 1295.14 26.38C1294.73 25.756 1294.53 25 1294.53 24.112C1294.53 23.248 1294.73 22.48 1295.14 21.808C1295.57 21.136 1296.16 20.572 1296.9 20.116C1297.67 19.66 1298.56 19.312 1299.57 19.072C1300.6 18.832 1301.7 18.712 1302.88 18.712C1304.65 18.712 1306.13 18.976 1307.31 19.504C1308.48 20.008 1309.36 20.728 1309.93 21.664C1310.53 22.576 1310.83 23.632 1310.83 24.832H1306.69C1306.5 23.944 1306.12 23.308 1305.54 22.924C1304.97 22.516 1304.08 22.312 1302.88 22.312C1301.7 22.312 1300.81 22.492 1300.21 22.852C1299.61 23.212 1299.31 23.704 1299.31 24.328C1299.31 24.832 1299.49 25.228 1299.85 25.516C1300.24 25.78 1300.79 25.996 1301.51 26.164C1302.25 26.332 1303.18 26.512 1304.28 26.704C1305.22 26.896 1306.11 27.112 1306.95 27.352C1307.81 27.592 1308.58 27.904 1309.25 28.288C1309.92 28.648 1310.45 29.14 1310.83 29.764C1311.24 30.364 1311.45 31.132 1311.45 32.068C1311.45 33.22 1311.11 34.192 1310.44 34.984C1309.79 35.776 1308.85 36.388 1307.63 36.82C1306.41 37.228 1304.94 37.432 1303.24 37.432C1301.73 37.432 1300.42 37.276 1299.31 36.964C1298.23 36.628 1297.33 36.208 1296.61 35.704C1295.89 35.176 1295.33 34.624 1294.92 34.048C1294.54 33.448 1294.27 32.884 1294.13 32.356C1293.99 31.828 1293.94 31.396 1293.99 31.06Z" fill="white"/>
<line x1="-1.31134e-07" y1="23.5" x2="998" y2="23.4999" stroke="white" stroke-width="3"/>
</svg>
